<?xml version="1.0" encoding="utf-8"?>
<svg viewBox="0 0 500 500" xmlns="http://www.w3.org/2000/svg" xmlns:bx="https://boxy-svg.com">
  <rect x="97.587" y="201.224" width="10.062" height="100.584" style="stroke: rgb(255, 255, 255); fill: rgb(255, 255, 255);" transform="matrix(0.9999999999999999, 0, 0, 0.9999999999999999, 0, -1.3877787807814457e-17)"/>
  <rect x="391.365" y="198.785" width="10.062" height="100.584" style="stroke: rgb(255, 255, 255); fill: rgb(255, 255, 255);" transform="matrix(0.9999999999999999, 0, 0, 0.9999999999999999, 0, -1.3877787807814457e-17)"/>
  <rect x="181.387" y="98.985" width="10.062" height="100.584" style="stroke: rgb(255, 255, 255); fill: rgb(255, 255, 255); transform-origin: 186.418px 149.277px;" transform="matrix(0.5, 0.866025090218, -0.866025090218, 0.5, -8.858792327883, -28.240469308145)"/>
  <rect x="314.992" y="83.872" width="10.062" height="100.584" style="stroke: rgb(255, 255, 255); fill: rgb(255, 255, 255); transform-origin: 320.023px 134.164px;" transform="matrix(0.5, 0.866025090218, -0.866025090218, 0.5, 2.459654334724, 243.979583492829)"/>
  <rect x="314.992" y="83.872" width="10.062" height="100.584" style="stroke: rgb(255, 255, 255); fill: rgb(255, 255, 255); transform-origin: 320.023px 134.164px;" transform="matrix(0.5, -0.866025090218, 0.866025090218, 0.5, -144.570076606069, 244.561084994722)"/>
  <rect x="314.992" y="83.872" width="10.062" height="100.584" style="fill: rgb(255, 255, 255); stroke: rgb(255, 255, 255); transform-origin: 320.023px 134.164px;" transform="matrix(0.5, -0.866025090218, 0.866025090218, 0.5, 4.302924492565, -13.475200405668)"/>
  <rect x="181.387" y="98.985" width="10.062" height="100.584" style="stroke: rgb(255, 255, 255); fill: rgb(255, 255, 255); transform-origin: 186.418px 149.277px;" transform="matrix(0.5, 0.866025090218, -0.866025090218, 0.5, 136.534113861082, 57.591372977392)"/>
  <rect x="181.387" y="98.985" width="10.062" height="100.584" style="stroke: rgb(255, 255, 255); fill: rgb(255, 255, 255); transform-origin: 186.418px 149.277px;" transform="matrix(0.5, -0.866025090218, 0.866025090218, 0.5, 136.113917236714, 142.109360207422)"/>
  <rect x="181.387" y="98.985" width="10.062" height="100.584" style="stroke: rgb(255, 255, 255); fill: rgb(255, 255, 255); transform-origin: 186.418px 149.277px;" transform="matrix(0.5, -0.866025090218, 0.866025090218, 0.5, -12.518183959193, 58.703146310099)"/>
  <rect x="180.264" y="219.896" width="10" height="223.448" style="stroke: rgb(255, 255, 255); fill: rgb(255, 255, 255); transform-origin: 185.264px 331.62px;" transform="matrix(0.866025090218, 0.5, -0.5, 0.866025090218, -7.550905488611, -122.979715653943)"/>
  <rect x="180.264" y="219.896" width="10" height="223.448" style="fill: rgb(146, 146, 146); stroke: rgb(146, 146, 146); transform-origin: 185.264px 331.62px;" transform="matrix(0.866025090218, 0.5, -0.5, 0.866025090218, 139.720476163455, -38.44216377406)"/>
  <rect x="180.264" y="219.896" width="10" height="223.448" style="stroke: rgb(255, 255, 255); fill: rgb(255, 255, 255); transform-origin: 185.264px 331.62px;" transform="matrix(0.866025090218, -0.5, 0.5, 0.866025090218, 137.86289556768, -124.574614557602)"/>
  <path d="M 396.264 334.497 m -40 0 a 40 40 0 1 0 80 0 a 40 40 0 1 0 -80 0 Z M 396.264 334.497 m -30 0 a 30 30 0 0 1 60 0 a 30 30 0 0 1 -60 0 Z" style="stroke: rgb(255, 255, 255); fill: rgb(255, 255, 255);" transform="matrix(0.9999999999999999, 0, 0, 0.9999999999999999, 0, -1.3877787807814457e-17)" bx:shape="ring 396.264 334.497 30 30 40 40 1@11fa1d26"/>
  <path d="M 396.268 165.529 m -40 0 a 40 40 0 1 0 80 0 a 40 40 0 1 0 -80 0 Z M 396.268 165.529 m -30 0 a 30 30 0 0 1 60 0 a 30 30 0 0 1 -60 0 Z" style="stroke: rgb(255, 255, 255); fill: rgb(255, 255, 255);" transform="matrix(0.9999999999999999, 0, 0, 0.9999999999999999, 0, -1.3877787807814457e-17)" bx:shape="ring 396.268 165.529 30 30 40 40 1@a3a413f0"/>
  <path d="M 250 80.815 m -40 0 a 40 40 0 1 0 80 0 a 40 40 0 1 0 -80 0 Z M 250 80.815 m -30 0 a 30 30 0 0 1 60 0 a 30 30 0 0 1 -60 0 Z" style="stroke: rgb(255, 255, 255); fill: rgb(255, 255, 255);" transform="matrix(0.9999999999999999, 0, 0, 0.9999999999999999, 0, -1.3877787807814457e-17)" bx:shape="ring 250 80.815 30 30 40 40 1@a552c6d9"/>
  <rect x="180.264" y="219.896" width="10" height="223.448" style="paint-order: fill; stroke: rgb(146, 146, 146); fill: rgb(146, 146, 146); transform-origin: 185.264px 331.62px;" transform="matrix(0.866025090218, -0.5, 0.5, 0.866025090218, -7.733827851894, -40.113306352185)"/>
  <rect x="181.387" y="98.985" width="10.062" height="100.584" style="stroke: rgb(255, 255, 255); fill: rgb(255, 255, 255); transform-origin: 186.418px 149.277px;" transform="matrix(0.5, 0.866025090218, -0.866025090218, 0.5, -7.912983917238, 142.092776785987)"/>
  <path d="M 104.169 164.293 m -40 0 a 40 40 0 1 0 80 0 a 40 40 0 1 0 -80 0 Z M 104.169 164.293 m -30 0 a 30 30 0 0 1 60 0 a 30 30 0 0 1 -60 0 Z" style="stroke: rgb(255, 255, 255); fill: rgb(255, 255, 255);" transform="matrix(0.9999999999999999, 0, 0, 0.9999999999999999, 0, -1.3877787807814457e-17)" bx:shape="ring 104.169 164.293 30 30 40 40 1@76a2d0e4"/>
  <path d="M 104.321 336.164 m -40 0 a 40 40 0 1 0 80 0 a 40 40 0 1 0 -80 0 Z M 104.321 336.164 m -30 0 a 30 30 0 0 1 60 0 a 30 30 0 0 1 -60 0 Z" style="stroke: rgb(255, 255, 255); fill: rgb(255, 255, 255);" transform="matrix(0.9999999999999999, 0, 0, 0.9999999999999999, 0, -1.3877787807814457e-17)" bx:shape="ring 104.321 336.164 30 30 40 40 1@84e71c00"/>
  <path d="M 250 419.268 m -40 0 a 40 40 0 1 0 80 0 a 40 40 0 1 0 -80 0 Z M 250 419.268 m -30 0 a 30 30 0 0 1 60 0 a 30 30 0 0 1 -60 0 Z" style="fill: rgb(255, 255, 255); stroke: rgb(255, 255, 255);" transform="matrix(0.9999999999999999, 0, 0, 0.9999999999999999, 0, -1.3877787807814457e-17)" bx:shape="ring 250 419.268 30 30 40 40 1@ae02d99b"/>
  <path d="M 250 250 m -40 0 a 40 40 0 1 0 80 0 a 40 40 0 1 0 -80 0 Z M 250 250 m -30 0 a 30 30 0 0 1 60 0 a 30 30 0 0 1 -60 0 Z" style="stroke: rgb(255, 255, 255); fill: rgb(255, 255, 255);" transform="matrix(0.9999999999999999, 0, 0, 0.9999999999999999, 0, -1.3877787807814457e-17)" bx:shape="ring 250 250 30 30 40 40 1@bcdd8d1a"/>
</svg>